<svg id="visual" viewBox="0 0 900 600" width="900" height="600" xmlns="http://www.w3.org/2000/svg" xmlns:xlink="http://www.w3.org/1999/xlink" version="1.1"><path d="M0 522L13.7 516.5C27.3 511 54.7 500 82 499.2C109.3 498.3 136.7 507.7 163.8 521.3C191 535 218 553 245.2 547.3C272.3 541.7 299.7 512.3 327 499.3C354.3 486.3 381.7 489.7 409 496.8C436.3 504 463.7 515 491 508.8C518.3 502.7 545.7 479.3 573 468.3C600.3 457.3 627.7 458.7 654.8 470.8C682 483 709 506 736.2 512.5C763.3 519 790.7 509 818 502C845.3 495 872.7 491 886.3 489L900 487L900 601L886.3 601C872.7 601 845.3 601 818 601C790.7 601 763.3 601 736.2 601C709 601 682 601 654.8 601C627.7 601 600.3 601 573 601C545.7 601 518.3 601 491 601C463.7 601 436.3 601 409 601C381.7 601 354.3 601 327 601C299.7 601 272.3 601 245.2 601C218 601 191 601 163.8 601C136.7 601 109.3 601 82 601C54.7 601 27.3 601 13.7 601L0 601Z" fill="#d2e6a2" stroke-linecap="round" stroke-linejoin="miter"></path></svg>